<mxfile host="app.diagrams.net" agent="Mozilla/5.0 (Windows NT 10.0; Win64; x64) AppleWebKit/537.36 (KHTML, like Gecko) Chrome/132.0.0.0 Safari/537.36" version="26.0.11">
  <diagram id="yvi8D_Mabd3kGTDyu403" name="Page-1">
    <mxGraphModel dx="819" dy="422" grid="1" gridSize="10" guides="1" tooltips="1" connect="1" arrows="1" fold="1" page="1" pageScale="1" pageWidth="850" pageHeight="1100" math="0" shadow="0">
      <root>
        <mxCell id="0" />
        <mxCell id="1" parent="0" />
        <mxCell id="Vncvu1EEu2WYUHLNXOCo-1" value="OrderInfoService&lt;div&gt;(API Composer)&lt;/div&gt;" style="html=1;whiteSpace=wrap;" vertex="1" parent="1">
          <mxGeometry x="200" y="40" width="110" height="50" as="geometry" />
        </mxCell>
        <mxCell id="Vncvu1EEu2WYUHLNXOCo-2" value="InventoryService" style="html=1;whiteSpace=wrap;" vertex="1" parent="1">
          <mxGeometry x="400" y="120" width="110" height="50" as="geometry" />
        </mxCell>
        <mxCell id="Vncvu1EEu2WYUHLNXOCo-4" value="" style="ellipse;whiteSpace=wrap;html=1;aspect=fixed;" vertex="1" parent="1">
          <mxGeometry x="350" y="130" width="20" height="20" as="geometry" />
        </mxCell>
        <mxCell id="Vncvu1EEu2WYUHLNXOCo-5" value="" style="endArrow=none;html=1;rounded=0;" edge="1" parent="1">
          <mxGeometry width="50" height="50" relative="1" as="geometry">
            <mxPoint x="370" y="140" as="sourcePoint" />
            <mxPoint x="400" y="140" as="targetPoint" />
          </mxGeometry>
        </mxCell>
        <mxCell id="Vncvu1EEu2WYUHLNXOCo-7" value="BookService" style="html=1;whiteSpace=wrap;" vertex="1" parent="1">
          <mxGeometry x="400" y="200" width="110" height="50" as="geometry" />
        </mxCell>
        <mxCell id="Vncvu1EEu2WYUHLNXOCo-8" value="" style="ellipse;whiteSpace=wrap;html=1;aspect=fixed;" vertex="1" parent="1">
          <mxGeometry x="350" y="210" width="20" height="20" as="geometry" />
        </mxCell>
        <mxCell id="Vncvu1EEu2WYUHLNXOCo-9" value="" style="endArrow=none;html=1;rounded=0;" edge="1" parent="1">
          <mxGeometry width="50" height="50" relative="1" as="geometry">
            <mxPoint x="370" y="220" as="sourcePoint" />
            <mxPoint x="400" y="220" as="targetPoint" />
          </mxGeometry>
        </mxCell>
        <mxCell id="Vncvu1EEu2WYUHLNXOCo-10" value="OrderService" style="html=1;whiteSpace=wrap;" vertex="1" parent="1">
          <mxGeometry x="400" y="280" width="110" height="50" as="geometry" />
        </mxCell>
        <mxCell id="Vncvu1EEu2WYUHLNXOCo-11" value="" style="ellipse;whiteSpace=wrap;html=1;aspect=fixed;" vertex="1" parent="1">
          <mxGeometry x="350" y="290" width="20" height="20" as="geometry" />
        </mxCell>
        <mxCell id="Vncvu1EEu2WYUHLNXOCo-12" value="" style="endArrow=none;html=1;rounded=0;" edge="1" parent="1">
          <mxGeometry width="50" height="50" relative="1" as="geometry">
            <mxPoint x="370" y="300" as="sourcePoint" />
            <mxPoint x="400" y="300" as="targetPoint" />
          </mxGeometry>
        </mxCell>
        <mxCell id="Vncvu1EEu2WYUHLNXOCo-13" value="" style="shape=cylinder3;whiteSpace=wrap;html=1;boundedLbl=1;backgroundOutline=1;size=15;" vertex="1" parent="1">
          <mxGeometry x="590" y="120" width="40" height="50" as="geometry" />
        </mxCell>
        <mxCell id="Vncvu1EEu2WYUHLNXOCo-16" value="" style="shape=cylinder3;whiteSpace=wrap;html=1;boundedLbl=1;backgroundOutline=1;size=15;" vertex="1" parent="1">
          <mxGeometry x="590" y="200" width="40" height="50" as="geometry" />
        </mxCell>
        <mxCell id="Vncvu1EEu2WYUHLNXOCo-17" value="" style="shape=cylinder3;whiteSpace=wrap;html=1;boundedLbl=1;backgroundOutline=1;size=15;" vertex="1" parent="1">
          <mxGeometry x="590" y="280" width="40" height="50" as="geometry" />
        </mxCell>
        <mxCell id="Vncvu1EEu2WYUHLNXOCo-20" value="" style="endArrow=none;html=1;rounded=0;" edge="1" parent="1">
          <mxGeometry width="50" height="50" relative="1" as="geometry">
            <mxPoint x="169" y="65" as="sourcePoint" />
            <mxPoint x="199" y="65" as="targetPoint" />
          </mxGeometry>
        </mxCell>
        <mxCell id="Vncvu1EEu2WYUHLNXOCo-21" value="" style="ellipse;whiteSpace=wrap;html=1;aspect=fixed;" vertex="1" parent="1">
          <mxGeometry x="149" y="55" width="20" height="20" as="geometry" />
        </mxCell>
        <mxCell id="Vncvu1EEu2WYUHLNXOCo-22" value="" style="endArrow=classic;html=1;rounded=0;entryX=0;entryY=0.5;entryDx=0;entryDy=0;exitX=0.471;exitY=1.023;exitDx=0;exitDy=0;exitPerimeter=0;" edge="1" parent="1" source="Vncvu1EEu2WYUHLNXOCo-1" target="Vncvu1EEu2WYUHLNXOCo-4">
          <mxGeometry width="50" height="50" relative="1" as="geometry">
            <mxPoint x="320" y="240" as="sourcePoint" />
            <mxPoint x="370" y="190" as="targetPoint" />
          </mxGeometry>
        </mxCell>
        <mxCell id="Vncvu1EEu2WYUHLNXOCo-23" value="" style="endArrow=classic;html=1;rounded=0;entryX=0;entryY=0.5;entryDx=0;entryDy=0;" edge="1" parent="1" target="Vncvu1EEu2WYUHLNXOCo-8">
          <mxGeometry width="50" height="50" relative="1" as="geometry">
            <mxPoint x="250" y="90" as="sourcePoint" />
            <mxPoint x="360" y="203" as="targetPoint" />
          </mxGeometry>
        </mxCell>
        <mxCell id="Vncvu1EEu2WYUHLNXOCo-24" value="" style="endArrow=classic;html=1;rounded=0;entryX=0;entryY=0.5;entryDx=0;entryDy=0;" edge="1" parent="1" target="Vncvu1EEu2WYUHLNXOCo-11">
          <mxGeometry width="50" height="50" relative="1" as="geometry">
            <mxPoint x="250" y="90" as="sourcePoint" />
            <mxPoint x="326" y="230" as="targetPoint" />
          </mxGeometry>
        </mxCell>
        <mxCell id="Vncvu1EEu2WYUHLNXOCo-28" value="Client A" style="rounded=0;whiteSpace=wrap;html=1;" vertex="1" parent="1">
          <mxGeometry x="40" y="120" width="50" height="20" as="geometry" />
        </mxCell>
        <mxCell id="Vncvu1EEu2WYUHLNXOCo-29" value="Client B" style="rounded=0;whiteSpace=wrap;html=1;" vertex="1" parent="1">
          <mxGeometry x="40" y="160" width="50" height="20" as="geometry" />
        </mxCell>
        <mxCell id="Vncvu1EEu2WYUHLNXOCo-30" value="Client C" style="rounded=0;whiteSpace=wrap;html=1;" vertex="1" parent="1">
          <mxGeometry x="40" y="200" width="50" height="20" as="geometry" />
        </mxCell>
        <mxCell id="Vncvu1EEu2WYUHLNXOCo-31" value="" style="endArrow=classic;html=1;rounded=0;entryX=0;entryY=1;entryDx=0;entryDy=0;exitX=1;exitY=0.5;exitDx=0;exitDy=0;" edge="1" parent="1" source="Vncvu1EEu2WYUHLNXOCo-28" target="Vncvu1EEu2WYUHLNXOCo-21">
          <mxGeometry width="50" height="50" relative="1" as="geometry">
            <mxPoint x="100" y="130" as="sourcePoint" />
            <mxPoint x="232" y="190" as="targetPoint" />
          </mxGeometry>
        </mxCell>
        <mxCell id="Vncvu1EEu2WYUHLNXOCo-32" value="" style="endArrow=classic;html=1;rounded=0;entryX=0.5;entryY=1;entryDx=0;entryDy=0;exitX=1;exitY=0.5;exitDx=0;exitDy=0;" edge="1" parent="1" source="Vncvu1EEu2WYUHLNXOCo-29" target="Vncvu1EEu2WYUHLNXOCo-21">
          <mxGeometry width="50" height="50" relative="1" as="geometry">
            <mxPoint x="100" y="170" as="sourcePoint" />
            <mxPoint x="162" y="82" as="targetPoint" />
          </mxGeometry>
        </mxCell>
        <mxCell id="Vncvu1EEu2WYUHLNXOCo-33" value="" style="endArrow=classic;html=1;rounded=0;exitX=1;exitY=0.5;exitDx=0;exitDy=0;" edge="1" parent="1" source="Vncvu1EEu2WYUHLNXOCo-30">
          <mxGeometry width="50" height="50" relative="1" as="geometry">
            <mxPoint x="100" y="210" as="sourcePoint" />
            <mxPoint x="350" y="140" as="targetPoint" />
          </mxGeometry>
        </mxCell>
        <mxCell id="Vncvu1EEu2WYUHLNXOCo-34" value="" style="endArrow=classic;html=1;rounded=0;exitX=1;exitY=0.5;exitDx=0;exitDy=0;" edge="1" parent="1" source="Vncvu1EEu2WYUHLNXOCo-30">
          <mxGeometry width="50" height="50" relative="1" as="geometry">
            <mxPoint x="100" y="220" as="sourcePoint" />
            <mxPoint x="350" y="300" as="targetPoint" />
          </mxGeometry>
        </mxCell>
        <mxCell id="Vncvu1EEu2WYUHLNXOCo-35" value="" style="endArrow=classic;html=1;rounded=0;" edge="1" parent="1">
          <mxGeometry width="50" height="50" relative="1" as="geometry">
            <mxPoint x="90" y="170" as="sourcePoint" />
            <mxPoint x="350" y="220" as="targetPoint" />
          </mxGeometry>
        </mxCell>
        <mxCell id="Vncvu1EEu2WYUHLNXOCo-36" value="" style="endArrow=classic;html=1;rounded=0;exitX=1;exitY=0.5;exitDx=0;exitDy=0;entryX=0;entryY=0.5;entryDx=0;entryDy=0;" edge="1" parent="1" source="Vncvu1EEu2WYUHLNXOCo-28" target="Vncvu1EEu2WYUHLNXOCo-4">
          <mxGeometry width="50" height="50" relative="1" as="geometry">
            <mxPoint x="100" y="130" as="sourcePoint" />
            <mxPoint x="340" y="140" as="targetPoint" />
          </mxGeometry>
        </mxCell>
        <mxCell id="Vncvu1EEu2WYUHLNXOCo-37" value="" style="endArrow=classic;html=1;rounded=0;entryX=0;entryY=0.5;entryDx=0;entryDy=0;entryPerimeter=0;exitX=1;exitY=0.5;exitDx=0;exitDy=0;" edge="1" parent="1" source="Vncvu1EEu2WYUHLNXOCo-2" target="Vncvu1EEu2WYUHLNXOCo-13">
          <mxGeometry width="50" height="50" relative="1" as="geometry">
            <mxPoint x="320" y="240" as="sourcePoint" />
            <mxPoint x="370" y="190" as="targetPoint" />
          </mxGeometry>
        </mxCell>
        <mxCell id="Vncvu1EEu2WYUHLNXOCo-38" value="" style="endArrow=classic;html=1;rounded=0;entryX=0;entryY=0.5;entryDx=0;entryDy=0;entryPerimeter=0;exitX=1;exitY=0.5;exitDx=0;exitDy=0;" edge="1" parent="1">
          <mxGeometry width="50" height="50" relative="1" as="geometry">
            <mxPoint x="511" y="228" as="sourcePoint" />
            <mxPoint x="591" y="228" as="targetPoint" />
          </mxGeometry>
        </mxCell>
        <mxCell id="Vncvu1EEu2WYUHLNXOCo-39" value="" style="endArrow=classic;html=1;rounded=0;entryX=0;entryY=0.5;entryDx=0;entryDy=0;entryPerimeter=0;exitX=1;exitY=0.5;exitDx=0;exitDy=0;" edge="1" parent="1">
          <mxGeometry width="50" height="50" relative="1" as="geometry">
            <mxPoint x="511" y="306" as="sourcePoint" />
            <mxPoint x="591" y="306" as="targetPoint" />
          </mxGeometry>
        </mxCell>
        <mxCell id="Vncvu1EEu2WYUHLNXOCo-41" value="query ISDB" style="text;html=1;align=center;verticalAlign=middle;whiteSpace=wrap;rounded=0;" vertex="1" parent="1">
          <mxGeometry x="510" y="130" width="70" height="10" as="geometry" />
        </mxCell>
        <mxCell id="Vncvu1EEu2WYUHLNXOCo-42" value="query BSDB" style="text;html=1;align=center;verticalAlign=middle;whiteSpace=wrap;rounded=0;" vertex="1" parent="1">
          <mxGeometry x="510" y="215" width="70" height="10" as="geometry" />
        </mxCell>
        <mxCell id="Vncvu1EEu2WYUHLNXOCo-43" value="query OSDB" style="text;html=1;align=center;verticalAlign=middle;whiteSpace=wrap;rounded=0;" vertex="1" parent="1">
          <mxGeometry x="510" y="295" width="70" height="10" as="geometry" />
        </mxCell>
        <mxCell id="Vncvu1EEu2WYUHLNXOCo-44" value="query" style="text;html=1;align=center;verticalAlign=middle;whiteSpace=wrap;rounded=0;" vertex="1" parent="1">
          <mxGeometry x="80" y="90" width="50" height="10" as="geometry" />
        </mxCell>
        <mxCell id="Vncvu1EEu2WYUHLNXOCo-45" value="query IS" style="text;html=1;align=center;verticalAlign=middle;whiteSpace=wrap;rounded=0;" vertex="1" parent="1">
          <mxGeometry x="303" y="105" width="50" height="10" as="geometry" />
        </mxCell>
        <mxCell id="Vncvu1EEu2WYUHLNXOCo-46" value="query BS" style="text;html=1;align=center;verticalAlign=middle;whiteSpace=wrap;rounded=0;" vertex="1" parent="1">
          <mxGeometry x="320" y="180" width="60" height="10" as="geometry" />
        </mxCell>
        <mxCell id="Vncvu1EEu2WYUHLNXOCo-47" value="query OS" style="text;html=1;align=center;verticalAlign=middle;whiteSpace=wrap;rounded=0;" vertex="1" parent="1">
          <mxGeometry x="330" y="250" width="60" height="10" as="geometry" />
        </mxCell>
        <mxCell id="Vncvu1EEu2WYUHLNXOCo-49" value="query BS" style="text;html=1;align=center;verticalAlign=middle;whiteSpace=wrap;rounded=0;" vertex="1" parent="1">
          <mxGeometry x="210" y="200" width="60" height="10" as="geometry" />
        </mxCell>
        <mxCell id="Vncvu1EEu2WYUHLNXOCo-50" value="query OS" style="text;html=1;align=center;verticalAlign=middle;whiteSpace=wrap;rounded=0;" vertex="1" parent="1">
          <mxGeometry x="180" y="260" width="60" height="10" as="geometry" />
        </mxCell>
        <mxCell id="Vncvu1EEu2WYUHLNXOCo-52" value="query IS" style="text;html=1;align=center;verticalAlign=middle;whiteSpace=wrap;rounded=0;" vertex="1" parent="1">
          <mxGeometry x="180" y="120" width="50" height="10" as="geometry" />
        </mxCell>
        <mxCell id="Vncvu1EEu2WYUHLNXOCo-53" value="query" style="text;html=1;align=center;verticalAlign=middle;whiteSpace=wrap;rounded=0;" vertex="1" parent="1">
          <mxGeometry x="100" y="140" width="50" height="10" as="geometry" />
        </mxCell>
        <mxCell id="Vncvu1EEu2WYUHLNXOCo-54" value="query IS" style="text;html=1;align=center;verticalAlign=middle;whiteSpace=wrap;rounded=0;" vertex="1" parent="1">
          <mxGeometry x="190" y="160" width="50" height="10" as="geometry" />
        </mxCell>
      </root>
    </mxGraphModel>
  </diagram>
</mxfile>
